<?xml version="1.0" standalone="no"?>
<!DOCTYPE svg PUBLIC "-//W3C//DTD SVG 20010904//EN"
 "http://www.w3.org/TR/2001/REC-SVG-20010904/DTD/svg10.dtd">
<svg version="1.0" xmlns="http://www.w3.org/2000/svg"
 width="900.000000pt" height="900.000000pt" viewBox="0 0 900.000000 900.000000"
 preserveAspectRatio="xMidYMid meet">
<metadata>
Created by potrace 1.11, written by Peter Selinger 2001-2013
</metadata>
<g transform="translate(0.000000,900.000000) scale(0.100000,-0.100000)"
fill="#000000" stroke="none">
<path d="M0 8200 c0 -793 0 -800 20 -800 18 0 26 17 21 44 -4 20 10 56 22 56
18 0 37 46 24 59 -7 7 -3 8 13 4 22 -6 22 -5 15 53 -8 73 12 63 24 -12 5 -27
9 -44 10 -39 1 7 36 8 109 2 380 -30 733 102 933 349 175 216 218 453 145 784
-9 41 -21 79 -26 84 -6 6 -10 20 -10 33 0 13 -4 23 -10 23 -5 0 -10 18 -10 40
0 35 5 43 33 60 19 12 50 20 78 20 33 0 51 6 64 20 18 20 17 20 -718 20 l-737
0 0 -800z m634 384 c5 -14 4 -15 -9 -4 -17 14 -19 20 -6 20 5 0 12 -7 15 -16z
m94 -71 c35 -36 42 -142 14 -206 -12 -27 -28 -47 -36 -47 -9 0 -16 -7 -16 -15
0 -8 -17 -21 -37 -30 -21 -9 -49 -23 -63 -30 -45 -23 -204 -50 -194 -33 3 4
22 8 42 9 20 0 46 5 57 10 18 8 17 9 -5 5 -14 -3 -41 -1 -60 4 -31 7 -32 8 -8
9 19 1 26 5 22 15 -6 17 27 31 37 15 5 -8 11 -5 18 10 6 11 17 20 24 18 7 -1
13 11 15 28 4 34 30 68 45 58 6 -3 7 -1 3 5 -4 7 -1 12 6 12 9 0 9 3 -2 10 -8
5 -10 10 -4 10 16 0 38 50 39 87 1 35 15 59 16 27 0 -17 1 -16 9 4 11 27 54
30 69 5 12 -20 14 -13 5 11 -4 10 -18 16 -35 16 -18 0 -29 5 -29 14 0 21 40 8
68 -21z m-362 -343 c8 0 14 -5 14 -11 0 -7 -8 -9 -22 -4 -13 4 -31 7 -40 6
-10 0 -21 5 -24 11 -5 8 3 9 26 5 18 -4 39 -7 46 -7z m-246 -482 c0 -5 -4 -8
-10 -8 -5 0 -10 10 -10 23 0 18 2 19 10 7 5 -8 10 -18 10 -22z"/>
<path d="M2157 8928 c8 -40 15 -137 16 -216 1 -90 6 -141 12 -138 6 3 55 29
110 58 l100 53 -2 75 c-1 41 -5 112 -9 158 l-6 82 -117 0 -118 0 14 -72z"/>
<path d="M7020 8984 c0 -37 75 -237 130 -349 33 -66 90 -163 127 -215 105
-147 314 -349 433 -418 334 -195 600 -269 990 -274 69 0 110 -3 93 -5 -38 -5
-46 -35 -13 -53 16 -8 20 -21 20 -60 0 -42 3 -50 18 -50 22 0 62 -51 62 -78 0
-10 9 -27 19 -36 27 -24 61 -100 61 -133 0 -17 8 -33 20 -41 20 -12 20 -10 20
858 l0 870 -711 0 c-471 0 -708 -3 -704 -10 3 -5 0 -10 -7 -10 -9 -1 -9 -4 3
-13 8 -7 18 -20 22 -29 3 -10 15 -18 25 -18 10 0 24 -6 31 -12 11 -10 14 -10
18 0 8 21 28 13 42 -18 16 -38 105 -130 125 -130 16 0 76 -56 76 -71 0 -5 9
-9 20 -9 11 0 20 -5 20 -11 0 -6 7 -8 16 -5 9 3 12 2 9 -5 -4 -6 0 -9 11 -7
12 2 20 -5 24 -21 7 -29 30 -40 30 -15 0 14 3 15 12 6 10 -10 10 -14 1 -20
-10 -6 -8 -18 7 -47 10 -22 24 -70 29 -106 13 -76 34 -144 47 -145 77 -4 201
-17 224 -24 20 -6 30 -5 30 2 0 15 14 0 16 -15 0 -7 2 -23 3 -37 2 -14 5 -19
8 -13 6 16 59 -46 55 -64 -2 -7 6 -13 17 -13 23 0 37 -16 19 -22 -10 -4 -10
-10 0 -32 6 -15 16 -25 21 -21 6 3 14 -3 20 -12 6 -10 11 -12 11 -5 0 10 4 10
20 0 14 -9 16 -14 7 -20 -7 -5 -3 -8 13 -8 14 0 32 -5 40 -11 12 -9 11 -10 -7
-6 -13 3 -23 1 -23 -4 0 -5 5 -9 10 -9 6 0 10 -4 10 -10 0 -13 -186 -13 -287
0 -411 55 -795 334 -1001 727 -33 63 -102 251 -102 278 0 12 -20 15 -115 15
-99 0 -115 -2 -115 -16z m997 -246 c-3 -8 -6 -5 -6 6 -1 11 2 17 5 13 3 -3 4
-12 1 -19z"/>
<path d="M4255 8649 c-959 -66 -1868 -455 -2580 -1106 -734 -669 -1221 -1616
-1342 -2611 -21 -174 -29 -693 -13 -865 74 -808 365 -1564 844 -2192 159 -208
365 -434 377 -414 5 9 54 10 175 6 135 -4 190 -11 274 -32 264 -66 464 -179
655 -370 148 -148 245 -292 309 -460 45 -119 43 -117 137 -152 46 -17 96 -34
111 -38 l26 -7 -9 44 c-6 23 -24 84 -40 133 -187 560 -671 974 -1254 1072
-120 20 -376 23 -484 5 l-73 -13 -24 28 c-14 16 -44 53 -67 83 -23 30 -44 57
-48 60 -11 10 -159 229 -165 244 -5 13 10 15 118 15 181 -1 306 30 446 112 67
40 217 185 257 249 138 220 169 473 84 704 -86 235 -284 428 -514 502 -158 50
-388 43 -536 -18 -123 -50 -251 -143 -327 -238 -25 -30 -50 -56 -57 -58 -22
-5 -86 351 -110 618 -21 226 -16 670 10 875 78 628 267 1171 598 1720 53 88
218 322 296 420 120 150 182 211 301 301 106 79 211 171 284 248 187 197 221
227 332 303 586 396 1191 621 1904 710 183 23 762 26 935 5 329 -40 598 -98
870 -187 77 -25 149 -50 160 -54 11 -5 67 -28 125 -51 363 -146 793 -405 1085
-653 38 -32 49 -39 30 -18 -51 57 -266 231 -401 326 -781 548 -1752 819 -2699
754z m-2868 -5085 c196 -49 368 -187 460 -368 37 -74 73 -226 73 -313 0 -317
-217 -607 -516 -689 -85 -23 -230 -29 -322 -14 -100 17 -114 33 -214 226 -143
278 -306 713 -293 781 6 35 104 171 151 212 50 43 147 108 195 129 42 19 141
45 214 56 49 7 190 -4 252 -20z"/>
<path d="M1265 3409 c-88 -15 -194 -34 -235 -41 l-75 -14 -6 -69 c-14 -150
-32 -446 -28 -450 3 -2 34 3 69 11 87 21 211 15 241 -12 36 -32 51 -79 39
-123 -12 -44 -31 -64 -83 -86 -43 -18 -156 -24 -206 -11 l-34 8 7 -38 c3 -22
11 -73 17 -114 16 -112 14 -110 123 -110 147 0 262 45 345 135 83 90 115 206
92 329 -30 160 -129 253 -283 264 l-68 5 0 32 c0 18 6 38 14 44 8 7 59 19 114
28 54 8 104 18 110 22 11 7 35 198 26 213 -3 4 -8 8 -12 7 -4 -1 -79 -14 -167
-30z"/>
<path d="M5394 8331 c-97 -25 -195 -107 -237 -199 -32 -69 -31 -218 2 -284 37
-75 95 -134 169 -170 59 -29 76 -33 147 -33 66 1 91 6 143 29 174 80 254 290
175 458 -59 125 -167 199 -297 204 -39 2 -85 0 -102 -5z m177 -52 c123 -31
220 -183 205 -321 -26 -248 -330 -355 -510 -181 -45 44 -83 120 -92 185 -10
72 26 176 79 232 87 91 188 118 318 85z"/>
<path d="M5445 8213 c-43 -8 -80 -15 -81 -16 -1 -1 -5 -52 -9 -114 l-7 -111
61 5 c68 6 91 -5 91 -43 0 -33 -36 -54 -92 -54 -27 0 -48 -2 -48 -5 0 -2 5
-26 11 -54 8 -39 15 -50 34 -55 55 -14 150 25 187 76 18 26 23 46 23 95 0 86
-36 131 -117 148 -47 9 -34 34 21 41 52 7 61 17 61 77 0 32 -10 33 -135 10z"/>
<path d="M8020 7677 c0 -2 15 -16 33 -33 l32 -29 -29 33 c-28 30 -36 37 -36
29z"/>
<path d="M8140 7547 c0 -5 31 -45 68 -90 150 -181 316 -421 447 -647 99 -170
251 -483 301 -620 l39 -105 3 100 c2 56 -1 101 -7 103 -5 2 -53 92 -108 200
-54 108 -100 199 -103 202 -3 3 -45 69 -93 147 -49 78 -94 147 -102 153 -8 7
-15 19 -15 26 0 8 -4 14 -8 14 -5 0 -14 10 -19 23 -6 12 -18 31 -27 42 -8 11
-39 52 -67 90 -29 39 -55 72 -59 75 -3 3 -40 48 -83 100 -95 117 -166 198
-167 187z"/>
<path d="M6410 7424 c-6 -15 -15 -45 -20 -68 -32 -141 -282 -1145 -290 -1163
l-10 -23 -744 0 -745 0 -15 -52 c-53 -187 -109 -409 -104 -414 3 -3 30 -8 60
-11 48 -5 56 -3 60 13 3 11 20 73 38 139 17 66 38 144 46 173 l15 52 744 0
c699 0 745 1 753 18 10 18 38 127 142 557 33 138 67 275 75 305 49 178 116
472 111 485 -4 11 -20 15 -56 15 -45 0 -52 -3 -60 -26z"/>
<path d="M15 7360 c3 -5 11 -10 16 -10 6 0 7 5 4 10 -3 6 -11 10 -16 10 -6 0
-7 -4 -4 -10z"/>
<path d="M0 7203 l0 -138 103 -28 c119 -32 178 -44 305 -61 l93 -12 69 104
c39 57 70 104 70 105 0 2 -30 4 -67 5 -86 4 -219 27 -303 54 -84 26 -234 89
-238 100 -2 4 -10 8 -18 8 -11 0 -14 -26 -14 -137z"/>
<path d="M0 6191 c0 -66 2 -71 31 -91 16 -12 32 -21 34 -19 4 4 45 107 45 113
0 5 -95 66 -103 66 -4 0 -7 -31 -7 -69z"/>
<path d="M8636 5370 c3 -52 14 -133 24 -180 23 -104 58 -205 59 -171 1 38 -37
247 -64 351 l-24 95 5 -95z"/>
<path d="M5890 5026 c0 -4 31 -53 69 -109 178 -266 284 -572 320 -926 16 -151
14 -494 -4 -645 -64 -547 -269 -978 -645 -1356 -122 -123 -228 -208 -378 -303
-403 -256 -824 -382 -1377 -412 -274 -15 -682 44 -1076 156 -77 21 -144 39
-149 39 -5 0 -8 -10 -6 -22 3 -13 5 -26 5 -31 2 -16 141 -59 391 -122 379 -95
550 -118 860 -117 455 1 861 94 1221 278 47 24 89 44 93 44 4 0 40 -30 79 -66
195 -178 455 -251 696 -194 291 69 513 287 593 582 32 116 32 299 0 411 -48
170 -118 284 -243 400 l-82 76 32 108 c203 700 118 1484 -215 1978 -54 80
-184 244 -184 231z m421 -2503 c94 -101 160 -234 184 -368 19 -109 19 -141 0
-246 -27 -158 -91 -278 -209 -394 -256 -253 -655 -254 -931 -4 -19 18 -35 38
-35 44 0 7 26 29 58 50 31 21 83 58 116 82 32 25 62 41 67 36 4 -4 15 -51 24
-103 9 -52 20 -99 25 -104 5 -5 53 -9 107 -9 79 0 110 4 158 23 155 60 240
157 266 304 20 119 -21 257 -100 333 l-42 41 46 72 c25 39 72 124 103 188 31
65 61 120 66 124 12 8 50 -19 97 -69z m-465 -551 c20 -13 34 -50 34 -88 0 -71
-88 -124 -208 -124 -27 0 -52 3 -56 7 -7 8 192 210 209 212 6 0 15 -3 21 -7z"/>
<path d="M3100 4379 c-102 -10 -232 -18 -290 -18 -58 -1 -111 -5 -119 -10 -8
-5 -15 -27 -15 -53 l-1 -43 88 -3 c85 -3 364 16 587 39 233 24 706 -44 900
-128 103 -45 170 -79 209 -106 42 -29 43 -29 26 -6 -62 82 -264 196 -430 244
-137 39 -314 73 -477 90 -178 18 -239 18 -478 -6z"/>
<path d="M8981 2724 c-53 -150 -199 -459 -296 -629 -133 -234 -338 -528 -514
-740 -105 -126 -353 -377 -501 -507 -364 -321 -870 -639 -1289 -809 l-84 -34
172 -3 171 -2 142 73 c79 41 164 86 190 100 26 15 50 27 54 27 6 0 2 -51 -13
-157 l-5 -43 136 0 c75 0 136 1 136 3 0 1 7 60 15 130 16 136 39 242 58 268 7
8 59 51 117 94 323 243 615 523 868 835 71 87 70 86 127 160 27 36 54 68 60
73 36 25 240 58 368 58 l107 -1 0 145 c0 106 -3 145 -12 145 -7 0 -63 -5 -126
-11 -62 -6 -116 -9 -119 -5 -3 3 21 52 53 108 32 57 91 169 131 250 l73 148
-2 181 c-3 169 -4 179 -17 143z"/>
<path d="M0 877 l0 -877 663 4 c449 2 696 8 768 16 94 11 115 11 172 -4 55
-13 122 -16 387 -16 176 0 320 3 320 6 0 4 -14 47 -31 96 -17 49 -29 92 -26
94 2 3 47 -19 98 -48 52 -30 137 -75 191 -101 90 -45 100 -48 164 -45 l67 3
-84 34 c-319 128 -837 432 -1084 637 -136 112 -255 216 -343 297 -75 69 -87
77 -100 64 -14 -15 -19 -58 -52 -437 -6 -69 -18 -183 -26 -255 -9 -71 -18
-150 -21 -174 -4 -42 -5 -42 -19 -22 -9 12 -20 18 -26 15 -7 -5 -9 0 -6 14 3
12 -3 37 -13 56 -10 20 -16 42 -13 50 3 8 1 17 -5 21 -6 3 -11 -2 -11 -12 -1
-11 -7 -4 -16 16 -8 19 -22 40 -32 48 -9 8 -11 12 -4 8 17 -9 15 10 -3 29 -8
8 -12 21 -9 29 3 10 -7 26 -27 44 -17 15 -38 43 -45 60 -8 18 -28 39 -44 48
-17 9 -30 20 -30 26 0 6 -27 37 -60 70 -33 32 -60 66 -60 74 0 8 -9 15 -20 15
-11 0 -20 6 -20 14 0 7 -7 19 -16 26 -19 16 -41 56 -26 46 7 -4 14 9 18 31 10
57 50 114 149 211 80 79 200 175 229 185 6 2 -20 40 -57 85 l-68 82 -55 -35
c-96 -62 -226 -170 -317 -265 -49 -51 -87 -86 -86 -79 5 28 -15 95 -33 110
-10 9 -18 21 -18 26 0 6 -18 30 -40 53 -22 23 -40 49 -40 56 0 8 -6 14 -14 14
-8 0 -17 15 -20 34 -7 36 -37 71 -51 59 -4 -5 -5 -2 0 6 4 8 2 16 -5 21 -7 4
-14 19 -15 32 -3 28 -43 96 -68 117 -9 7 -22 39 -28 72 -6 32 -18 67 -25 76
-11 15 -13 -123 -14 -860z m539 -97 c0 -23 -1 -23 -9 -5 -5 11 -9 31 -9 45 0
23 1 23 9 5 5 -11 9 -31 9 -45z m1143 -187 c18 -16 47 -40 63 -55 l30 -28 -77
0 -78 0 0 33 c0 40 10 77 20 77 5 0 23 -12 42 -27z m-633 -496 c0 -21 -1 -21
-9 -2 -12 28 -12 37 0 30 6 -3 10 -16 9 -28z"/>
<path d="M8960 1456 c0 -14 -4 -28 -10 -31 -20 -12 -9 -25 20 -25 28 0 30 2
30 40 0 33 -3 40 -20 40 -15 0 -20 -7 -20 -24z"/>
<path d="M8943 1370 c-18 -11 -33 -25 -33 -32 0 -10 -3 -10 -9 1 -6 10 -13 11
-27 3 -18 -10 -18 -11 -1 -17 9 -4 17 -12 17 -17 0 -7 -5 -6 -14 1 -11 9 -17
5 -29 -21 -10 -20 -28 -37 -49 -45 -31 -11 -29 -11 27 -7 42 3 54 1 40 -5 -16
-8 -17 -10 -3 -10 9 -1 20 -6 24 -13 5 -8 -10 -10 -57 -6 -35 3 -56 3 -46 1
32 -8 17 -23 -23 -23 -22 0 -40 -4 -40 -10 0 -5 -10 -10 -23 -10 -46 0 -322
-62 -336 -75 -12 -12 -28 -141 -56 -447 -5 -60 -10 -76 -21 -71 -8 3 -14 -1
-14 -8 0 -11 -3 -11 -10 1 -8 13 -10 12 -10 -2 0 -26 4 -33 14 -30 5 2 3 -4
-4 -14 -9 -10 -16 -12 -18 -5 -4 13 -42 15 -42 3 0 -5 -17 -16 -37 -26 -43
-20 -83 -56 -83 -74 0 -6 -23 -35 -51 -62 -37 -36 -55 -48 -64 -40 -15 12 -61
-33 -50 -50 4 -7 -2 -18 -14 -26 -12 -8 -21 -22 -21 -30 0 -9 -7 -14 -17 -12
-11 2 -30 -12 -50 -37 -62 -77 -105 -116 -126 -118 -21 -1 -37 -14 -37 -29 0
-5 304 -8 675 -8 l675 0 0 695 c0 549 -3 695 -12 695 -7 0 -28 -9 -45 -20z
m-658 -890 c0 -7 -6 -15 -12 -17 -8 -3 -13 4 -13 17 0 13 5 20 13 18 6 -3 12
-11 12 -18z m-415 -304 c0 -3 -4 -8 -10 -11 -5 -3 -10 -1 -10 4 0 6 5 11 10
11 6 0 10 -2 10 -4z"/>
<path d="M2015 1179 c-49 -10 -102 -19 -117 -19 -16 0 -28 -4 -28 -9 0 -10
236 -191 249 -191 10 0 25 216 16 230 -8 13 -12 12 -120 -11z"/>
<path d="M405 1140 c3 -5 8 -10 11 -10 2 0 4 5 4 10 0 6 -5 10 -11 10 -5 0 -7
-4 -4 -10z"/>
<path d="M7815 190 c-3 -5 -1 -10 4 -10 6 0 11 5 11 10 0 6 -2 10 -4 10 -3 0
-8 -4 -11 -10z"/>
</g>
</svg>
